<svg width="20" height="20" viewBox="0 0 20 20" fill="none" xmlns="http://www.w3.org/2000/svg">
<g clip-path="url(#clip0_48_266)">
<path d="M17.5 6.66669V17.4942C17.5008 17.6036 17.48 17.7121 17.4388 17.8135C17.3976 17.9149 17.3369 18.0072 17.2601 18.0852C17.1832 18.1631 17.0918 18.2251 16.991 18.2677C16.8902 18.3103 16.7819 18.3326 16.6725 18.3334H3.3275C3.10818 18.3334 2.89783 18.2463 2.74266 18.0913C2.5875 17.9363 2.50022 17.726 2.5 17.5067V2.49335C2.5 2.04585 2.87417 1.66669 3.335 1.66669H12.4975L17.5 6.66669ZM15.8333 7.50002H11.6667V3.33335H4.16667V16.6667H15.8333V7.50002ZM6.66667 5.83335H9.16667V7.50002H6.66667V5.83335ZM6.66667 9.16669H13.3333V10.8334H6.66667V9.16669ZM6.66667 12.5H13.3333V14.1667H6.66667V12.5Z" fill="#71717A"/>
</g>
<defs>
<clipPath id="clip0_48_266">
<rect width="20" height="20" fill="white"/>
</clipPath>
</defs>
</svg>
