<svg width="129" height="38" viewBox="0 0 129 38" fill="none" xmlns="http://www.w3.org/2000/svg">
<g clip-path="url(#clip0_232_598)">
<path fill-rule="evenodd" clip-rule="evenodd" d="M17.8762 6.37847e-06H19.7806C17.7927 5.34893 16.1897 10.669 16.1897 15.9006C16.1897 22.3255 18.4792 25.2013 18.4792 29.4846C18.4792 30.2494 17.7433 35.3179 15.6991 35.3179C13.9207 35.3179 13.7981 28.1384 12.0196 28.1384C10.3434 28.1384 8.32654 33.6097 7.90067 34.5819C2.12252 30.2817 0 24.0591 0 19.0824C0 8.47637 9.14761 -0.00849208 17.8762 6.37847e-06Z" fill="#18181B"/>
<path fill-rule="evenodd" clip-rule="evenodd" d="M26.0017 1.62317C27.6779 1.62317 27.8005 7.57889 29.3541 7.57889C30.4273 7.57889 31.7083 5.48147 32.003 4.88828C36.771 9.02702 38.4301 14.5136 38.4301 19.1232C38.4301 25.4664 35.197 32.9383 26.7137 36.7218C26.4173 36.8544 23.3238 38.0102 22.3528 38H21.9185C24.3476 32.1207 26.0017 25.8438 26.0017 20.0614C26.0017 13.4836 23.6304 10.6587 23.6304 6.76304C23.6304 6.28372 24.3357 1.62317 26.0017 1.62317Z" fill="#EF4444"/>
<path fill-rule="evenodd" clip-rule="evenodd" d="M75.3834 20.6903H79.2026C79.0459 21.3821 78.8824 22.0331 78.7052 22.786H74.8043C74.961 22.0943 75.2063 21.36 75.3834 20.6903Z" fill="#18181B"/>
<path fill-rule="evenodd" clip-rule="evenodd" d="M65.8951 23.5459H69.5422C69.4792 23.9878 69.4792 24.3821 69.5235 24.7561C69.7484 23.9589 70.8914 23.5323 71.4126 23.5408H73.806L73.1331 26.1413C72.4518 25.6671 71.7908 25.7351 71.198 25.7351C68.234 25.7351 68.9988 29.1617 68.4026 31.4324H63.9276C65.0383 28.7792 65.781 26.1821 65.8951 23.5459Z" fill="#18181B"/>
<path fill-rule="evenodd" clip-rule="evenodd" d="M74.2353 23.5458H78.465C77.9012 26.1922 76.8178 28.7961 76.7445 31.4306H72.2661C73.3768 28.7774 74.1195 26.182 74.2336 23.5458H74.2353Z" fill="#18181B"/>
<path fill-rule="evenodd" clip-rule="evenodd" d="M79.8772 23.5458H83.9416C83.9536 23.6563 83.8599 23.9538 83.911 24.0235C84.342 23.4677 85.8955 23.534 86.4066 23.534C87.7761 23.534 89.9225 23.3912 89.9225 25.6144C89.9225 27.3073 88.5001 29.7157 88.851 31.429H84.3692C84.87 30.518 86.163 25.9815 86.163 25.5736C86.163 24.8699 85.1102 25.0841 84.9365 25.0841C84.732 25.0841 84.1222 24.892 83.9485 25.1674C82.8139 26.9724 82.5141 29.3197 82.3881 31.4324H77.9097C79.0203 28.7792 79.763 26.1838 79.8772 23.5458Z" fill="#18181B"/>
<path fill-rule="evenodd" clip-rule="evenodd" d="M93.2017 4.56029H97.353C96.5643 8.3574 95.2867 11.6973 94.9784 15.2819H90.9156C90.9037 15.0899 90.9088 14.8621 90.8696 14.721C90.8015 15.3601 88.9209 15.2921 88.3281 15.2921C87.4593 15.2921 84.853 15.6083 84.853 13.5381C84.853 13.3341 85.284 11.7245 85.4782 10.8373C86.3265 6.94156 87.3367 7.45997 89.7181 7.45997C90.0656 7.45997 92.1353 7.40898 92.5748 8.19423C92.878 6.99935 93.4504 5.77557 93.2034 4.55859L93.2017 4.56029ZM124.845 4.61978H129V5.14329C128.065 8.26902 126.881 11.8809 126.54 15.2819H122.559C122.547 15.0899 122.552 14.8621 122.508 14.7227C122.278 15.3703 120.524 15.2938 119.89 15.2938C118.919 15.2938 116.497 15.6406 116.497 13.4582C116.497 13.2542 116.967 11.6565 117.12 10.7591C117.764 6.96536 119.103 7.46167 121.362 7.46167C121.709 7.46167 123.704 7.45827 124.215 8.19763C124.399 7.14892 125.104 5.85036 124.845 4.61978ZM98.3632 7.38688L106.07 7.46167C106.967 7.38008 107.748 8.83842 107.748 9.41971C107.748 10.8067 106.097 14.2757 106.598 15.2785H102.772C102.76 15.0899 102.762 14.8587 102.71 14.6412C102.196 15.1817 100.217 15.2955 99.9815 15.2955C98.7243 15.2955 96.5473 15.5097 96.5473 13.3783C96.5473 12.5114 97.0481 10.0741 98.6425 10.0741H103.365C103.845 10.0741 103.906 9.4826 103.906 9.42141C103.906 8.71774 101.075 8.9319 101.044 8.9319C99.8282 8.9319 98.7362 8.87921 97.5387 9.24464C97.7772 8.62935 98.1043 7.97667 98.3649 7.38858L98.3632 7.38688ZM63.0418 7.46507H70.7381C71.9544 7.46167 72.3428 9.01179 72.3428 9.5013C72.3428 10.9902 70.7653 14.1754 71.273 15.2785H67.4487C67.4368 15.0899 67.4385 14.8587 67.3874 14.6412C66.8729 15.1817 64.8935 15.2955 64.6584 15.2955C63.5137 15.2955 61.1425 15.5913 61.1425 13.3783C61.1425 12.5114 61.8068 10.0741 63.2377 10.0741H68.0415C68.4197 10.0741 68.5014 9.68656 68.5014 9.4622C68.5014 8.70754 65.9973 8.9319 65.7214 8.9319C64.5051 8.9319 63.4132 8.87921 62.2157 9.24464C62.4541 8.62935 62.7011 8.05486 63.0435 7.46507H63.0418ZM90.9855 8.9302C91.4761 8.9302 92.212 8.99139 92.212 9.58288C92.212 9.78684 91.6379 12.197 91.1984 13.4718C91.0553 13.8899 90.1576 13.8253 89.9225 13.8253C89.6465 13.8253 88.696 13.9069 88.696 13.4174C88.696 13.1318 89.4541 9.58458 90.0162 9.04408C90.2411 8.81972 90.7811 8.9302 90.9855 8.9302ZM122.588 8.9302C122.915 8.9302 123.856 9.00159 123.856 9.54209C123.856 9.74605 123.28 12.2803 122.759 13.5551C122.646 13.8202 121.77 13.8253 121.566 13.8253C121.075 13.8253 120.34 13.8661 120.34 13.295C120.34 13.091 120.936 10.5568 121.426 9.28204C121.58 8.87411 122.21 8.9302 122.588 8.9302ZM66.0161 11.5494H68.0023C67.1881 13.6655 68.0602 13.8253 66.2512 13.8253C65.9343 13.8253 64.9838 13.9273 64.9838 13.3766C64.9838 12.9483 65.362 11.5409 66.0161 11.5494ZM101.339 11.546H103.327V11.8146C103.332 13.1403 102.77 13.8236 101.615 13.8236C101.247 13.8236 100.307 13.9256 100.307 13.3749C100.307 12.9466 100.685 11.5392 101.339 11.546ZM54.1174 23.5475H58.1853C58.1972 23.7362 58.1955 23.9691 58.2398 24.1866C58.3846 23.7736 59.1068 23.5441 59.5463 23.5339C62.2463 23.6155 62.2974 23.6274 62.3962 23.5339C63.6432 23.7991 64.2479 24.5725 64.2479 25.4495C64.2479 25.6535 63.8288 27.0064 63.696 27.8223C63.0214 31.8709 61.7949 31.446 59.3828 31.446C59.0455 31.446 57.0082 31.4681 56.5278 30.7117C56.3148 31.6602 55.826 33.4448 55.826 33.6488C55.826 33.8528 55.9026 34.0788 55.9827 34.2845H51.7462L54.2724 24.2206C54.2724 24.0626 54.1923 23.8314 54.1157 23.5475H54.1174ZM93.8183 23.5339C93.9171 23.6257 93.9699 23.6138 97.1588 23.5339C97.4757 23.5339 97.9799 23.879 98.2218 24.2682C98.3512 24.0422 98.3461 23.8059 98.4432 23.5475H102.589C101.182 26.8551 100.724 30.1236 99.7021 33.3769C99.5692 33.8154 98.3751 34.4664 97.8845 34.4596H89.5971C89.5971 33.2001 89.5971 32.957 89.6125 32.6783C89.8953 32.7548 90.2598 32.9145 90.4642 32.9145H95.595C96.3412 32.9145 96.3855 31.5021 96.4366 31.3202V31.0347C96.0822 31.3338 94.389 31.446 94.0108 31.446C92.6617 31.446 90.4949 31.6092 90.4949 29.488C90.4949 28.7333 91.8304 24.5691 91.9122 24.4467C92.3517 23.8246 93.1727 23.675 93.8166 23.5339H93.8183ZM59.221 25.0824C59.6605 25.0824 60.4066 24.9702 60.4066 25.5719C60.4066 26.2144 59.175 29.7327 59.0779 29.8925H57.2483C57.0763 29.8092 56.8906 29.6511 56.8906 29.4472C56.8906 29.1412 57.6282 25.6858 58.129 25.1962C58.3641 24.9617 59.0165 25.0824 59.221 25.0824ZM96.6699 25.0824C97.1094 25.0824 97.8555 25.0824 97.8555 25.6535C97.8555 26.0104 97.0396 29.2585 96.5234 29.8925H94.6156C94.4435 29.8092 94.3396 29.6103 94.3396 29.4064C94.3396 28.9781 95.2561 25.7537 95.5116 25.3458C95.6956 25.0501 96.2918 25.0824 96.6699 25.0824Z" fill="#18181B"/>
<path fill-rule="evenodd" clip-rule="evenodd" d="M45.5745 4.61292H53.6898C53.6183 5.46617 53.5365 6.12055 53.4343 6.72224C52.3356 6.24463 50.9915 6.31941 49.857 6.31941C48.7225 6.31941 46.9135 5.8299 46.9135 7.62478C46.9135 7.82874 47.0548 7.87463 47.2099 7.95112H51.0324C52.0545 7.95112 52.5553 8.64459 52.5553 9.46044C52.5553 10.2253 51.4617 15.2938 49.8059 15.287H41.0365C41.108 14.5952 41.2716 13.8609 41.3772 13.176C41.6617 13.3425 42.0995 13.5805 42.3039 13.5805H47.1894C47.7005 13.5805 47.8129 12.5505 47.8129 12.5199C47.8129 12.4077 47.6953 12.1833 47.5131 12.0287H43.6939C42.6003 12.0287 42.171 11.2451 42.171 10.4803C42.171 9.01172 43.1931 4.60612 45.5745 4.61292Z" fill="#EF4444"/>
<path fill-rule="evenodd" clip-rule="evenodd" d="M59.2516 5.68372C59.0932 6.13073 58.8513 6.90069 58.8445 7.10466V7.4344H61.8647C61.7932 8.07858 61.6279 8.48991 61.5325 8.92163H58.3436L57.296 13.2133C57.4885 13.968 58.4305 13.8252 58.9313 13.8252C59.4833 13.8252 60.26 13.8711 60.7966 13.589C60.6467 14.1227 60.4849 14.687 60.3895 15.2887H55.1394C54.332 15.2938 53.2707 14.1839 53.4547 13.368L54.5245 8.92503H52.8875C53.0476 8.46781 53.1259 7.9868 53.2213 7.47179H54.8601C55.0083 7.00098 55.1701 6.51996 55.2655 5.92337L59.2516 5.68542V5.68372Z" fill="#18181B"/>
<path fill-rule="evenodd" clip-rule="evenodd" d="M74.317 7.47359H78.298C78.31 7.66565 78.2231 7.81013 78.2742 7.9512C78.637 7.53478 80.3746 7.46169 80.763 7.46169C82.1325 7.46169 84.2789 7.09456 84.2789 9.54211C84.2789 11.2044 82.9911 13.7081 83.2057 15.2769H78.8057C79.1821 14.4899 80.5977 9.78687 80.5977 9.33815C80.5977 8.74666 79.4019 8.93022 79.3712 8.93022C76.7547 8.93022 76.816 14.9845 76.8263 15.3194H72.3478C73.3461 12.7392 74.1399 10.0911 74.3153 7.47359H74.317Z" fill="#18181B"/>
<path fill-rule="evenodd" clip-rule="evenodd" d="M109.64 7.47356H113.214C113.226 7.74721 113.226 8.07355 113.19 8.68544C113.279 8.25542 114.156 7.46166 114.667 7.47016H117.551C117.313 8.3302 117.067 9.14266 116.878 9.9874C116.205 9.51319 115.524 9.58288 114.941 9.58288C111.957 9.58288 112.803 13.0112 112.062 15.2802H107.671C108.627 12.7698 109.555 10.0809 109.638 7.47356H109.64Z" fill="#18181B"/>
<path fill-rule="evenodd" clip-rule="evenodd" d="M105.508 23.5391H112.558C112.57 24.96 112.57 25.1232 112.553 25.3203C111.577 25.0416 110.189 25.0841 109.299 25.0841C108.921 25.0841 106.765 24.9005 106.765 25.492C106.765 25.7674 107.194 25.8183 107.306 25.8183H110.802C111.609 25.8183 111.998 27.0829 111.998 27.4093C111.998 28.1741 111.282 31.4477 109.575 31.4426H101.864C101.707 30.6183 101.859 30.3157 101.871 29.7463C102.063 29.7344 102.278 29.8976 102.482 29.8993H107.444C107.594 29.7463 107.746 29.6121 107.746 29.4081C107.746 29.2041 107.654 29.0818 107.449 29.0818H103.872C102.911 29.0818 102.513 27.8376 102.513 27.4501C102.513 25.7674 103.463 23.534 105.508 23.5408V23.5391Z" fill="#18181B"/>
<path fill-rule="evenodd" clip-rule="evenodd" d="M46.3104 20.6852H53.6898C53.6183 21.5384 53.5365 22.1928 53.4326 22.8761C53.0681 22.7129 52.5451 22.4733 52.3407 22.4733H47.6187C47.1281 22.4733 46.9135 23.6664 46.9135 23.697C46.9135 23.901 47.0872 24.105 47.2916 24.105H51.2777C52.1976 24.105 52.5553 24.9718 52.5553 25.5735C52.5553 26.8279 51.4924 31.4476 49.4789 31.4408H41.0365C41.108 30.6675 41.2716 30.0148 41.3738 29.3315C42.4436 29.8091 43.8983 29.7343 44.8693 29.7343C45.8403 29.7343 47.8129 30.1525 47.8129 28.6329C47.8129 28.3066 47.6187 28.1026 47.2712 28.1026H43.4486C42.5696 28.1026 42.0892 27.2052 42.0892 26.7157C42.0892 24.3803 43.2646 20.6784 46.3104 20.6852Z" fill="#EF4444"/>
</g>
<defs>
<clipPath id="clip0_232_598">
<rect width="129" height="38" fill="white"/>
</clipPath>
</defs>
</svg>
