<svg width="20" height="20" viewBox="0 0 20 20" fill="none" xmlns="http://www.w3.org/2000/svg">
<path fill-rule="evenodd" clip-rule="evenodd" d="M10 20C15.5228 20 20 15.5228 20 10C20 4.47715 15.5228 0 10 0C4.47715 0 0 4.47715 0 10C0 15.5228 4.47715 20 10 20ZM14.6828 6.4692C14.7615 5.57493 13.8172 5.94316 13.8172 5.94316C13.1199 6.23181 12.4007 6.52516 11.6738 6.82168C9.42004 7.74099 7.09167 8.69074 5.10823 9.62546C4.03273 10.02 4.66229 10.4145 4.66229 10.4145L6.36736 10.9406C7.15431 11.1773 7.57402 10.9143 7.57402 10.9143L11.2465 8.41556C12.5581 7.52129 12.2433 8.25775 11.9285 8.57337L9.17416 11.2036C8.75445 11.5718 8.96431 11.8874 9.14793 12.0453C9.66826 12.5044 10.9482 13.3443 11.5072 13.7112C11.6528 13.8067 11.7494 13.8701 11.7711 13.8864C11.9023 13.9916 12.6105 14.4651 13.0827 14.3598C13.5549 14.2546 13.6073 13.6497 13.6073 13.6497L14.2369 9.52025C14.3313 8.80328 14.4397 8.11415 14.5262 7.56377C14.6079 7.04404 14.6701 6.64804 14.6828 6.4692Z" fill="#A1A1AA"/>
</svg>
