<svg width="20" height="20" viewBox="0 0 20 20" fill="none" xmlns="http://www.w3.org/2000/svg">
<path fill-rule="evenodd" clip-rule="evenodd" d="M10 20C15.5228 20 20 15.5228 20 10C20 4.47715 15.5228 0 10 0C4.47715 0 0 4.47715 0 10C0 15.5228 4.47715 20 10 20ZM5 6.66667C5.0812 10.8308 7.02995 13.3333 10.4466 13.3333H10.6403V10.951C11.8957 11.0844 12.845 12.0654 13.226 13.3333H15C14.5128 11.4381 13.2323 10.3904 12.4328 9.98999C13.2323 9.49616 14.3566 8.29496 14.6252 6.66667H13.0136C12.6639 7.98799 11.6271 9.18919 10.6403 9.30264V6.66667H9.0287V11.2846C8.02933 11.0177 6.76765 9.72306 6.71143 6.66667H5Z" fill="#A1A1AA"/>
</svg>
