<svg width="57" height="56" viewBox="0 0 57 56" fill="none" xmlns="http://www.w3.org/2000/svg">
<rect x="0.5" width="56" height="56" rx="28" fill="#EF4444"/>
<g clip-path="url(#clip0_99_478)">
<path d="M33.5 24V18H36.5C36.7652 18 37.0196 18.1054 37.2071 18.2929C37.3946 18.4804 37.5 18.7348 37.5 19V23C37.5 23.2652 37.3946 23.5196 37.2071 23.7071C37.0196 23.8946 36.7652 24 36.5 24H33.5ZM31.5 38C31.5 38.2652 31.3946 38.5196 31.2071 38.7071C31.0196 38.8946 30.7652 39 30.5 39H26.5C26.2348 39 25.9804 38.8946 25.7929 38.7071C25.6054 38.5196 25.5 38.2652 25.5 38V24H19V22.074C19.0001 21.8994 19.046 21.7278 19.133 21.5764C19.22 21.425 19.3452 21.299 19.496 21.211L25 18H31.5V38Z" fill="white"/>
</g>
<defs>
<clipPath id="clip0_99_478">
<rect width="24" height="24" fill="white" transform="translate(16.5 16)"/>
</clipPath>
</defs>
</svg>
