<svg width="57" height="56" viewBox="0 0 57 56" fill="none" xmlns="http://www.w3.org/2000/svg">
<rect x="0.5" width="56" height="56" rx="28" fill="#EF4444"/>
<g clip-path="url(#clip0_99_472)">
<path d="M18.5 25H21.5V37H18.5C18.2348 37 17.9804 36.8946 17.7929 36.7071C17.6054 36.5196 17.5 36.2652 17.5 36V26C17.5 25.7348 17.6054 25.4804 17.7929 25.2929C17.9804 25.1054 18.2348 25 18.5 25ZM23.793 23.707L30.193 17.307C30.2781 17.2217 30.3911 17.17 30.5112 17.1613C30.6314 17.1527 30.7506 17.1877 30.847 17.26L31.7 17.9C31.9369 18.0778 32.1158 18.3218 32.2143 18.6013C32.3127 18.8807 32.3262 19.1829 32.253 19.47L31.1 24H37.5C38.0304 24 38.5391 24.2107 38.9142 24.5858C39.2893 24.9609 39.5 25.4696 39.5 26V28.104C39.5003 28.3654 39.4493 28.6242 39.35 28.866L36.255 36.381C36.1795 36.5642 36.0513 36.7209 35.8866 36.8311C35.7219 36.9413 35.5282 37.0001 35.33 37H24.5C24.2348 37 23.9804 36.8946 23.7929 36.7071C23.6054 36.5196 23.5 36.2652 23.5 36V24.414C23.5001 24.1488 23.6055 23.8945 23.793 23.707Z" fill="white"/>
</g>
<defs>
<clipPath id="clip0_99_472">
<rect width="24" height="24" fill="white" transform="translate(16.5 16)"/>
</clipPath>
</defs>
</svg>
