<svg width="57" height="56" viewBox="0 0 57 56" fill="none" xmlns="http://www.w3.org/2000/svg">
<rect x="0.5" width="56" height="56" rx="28" fill="#EF4444"/>
<g clip-path="url(#clip0_99_484)">
<path d="M21.9319 22.846L17.8929 18.808L19.3079 17.393L39.1069 37.193L37.6919 38.607L34.6539 35.567C32.9485 37.1601 30.691 38.0285 28.3576 37.9889C26.0242 37.9493 23.7974 37.0049 22.147 35.3549C20.4966 33.7049 19.5517 31.4783 19.5115 29.1449C19.4714 26.8115 20.3393 24.5538 21.9319 22.848V22.846ZM24.7429 20.03L28.4999 16.272L34.8639 22.636C36.0911 23.863 36.9375 25.4185 37.3012 27.1153C37.6649 28.8121 37.5304 30.5779 36.9139 32.2L24.7439 20.03H24.7429Z" fill="white"/>
</g>
<defs>
<clipPath id="clip0_99_484">
<rect width="24" height="24" fill="white" transform="translate(16.5 16)"/>
</clipPath>
</defs>
</svg>
