<svg width="77" height="80" viewBox="0 0 77 80" fill="none" xmlns="http://www.w3.org/2000/svg">
<path d="M37.8933 52.4481C35.4542 52.4481 32.2892 52.2304 28.3982 51.7951V46.7449L29.792 47.0061C30.3437 47.1222 30.6486 47.1948 30.7067 47.2238L32.1876 47.485C32.536 47.5431 33.2765 47.6301 34.4089 47.7462C35.28 47.8333 36.1656 47.8769 37.0658 47.8769C38.7499 47.8769 39.9114 47.6737 40.5502 47.2674C41.2181 46.861 41.552 46.0919 41.552 44.96V41.6948C41.552 40.3307 40.0856 39.6486 37.1529 39.6486H32.0133V35.295H37.1529C39.4178 35.295 40.5502 34.4679 40.5502 32.8135V30.0707C40.5502 29.4612 40.4341 28.9969 40.2018 28.6776C39.9695 28.3293 39.5484 28.0826 38.9387 27.9375C38.3579 27.7924 37.4868 27.7198 36.3253 27.7198C34.6702 27.7198 32.115 27.894 28.6596 28.2422V23.7145C32.6086 23.4533 35.3962 23.3227 37.0222 23.3227C40.5647 23.3227 43.12 23.729 44.688 24.5417C46.285 25.3544 47.0836 26.7911 47.0836 28.8517V33.5101C47.0836 34.3518 46.8222 35.0774 46.2996 35.6869C45.8059 36.2673 45.1671 36.6592 44.3831 36.8623C46.9384 37.7621 48.216 39.1697 48.216 41.0853V45.7001C48.216 48.109 47.3884 49.836 45.7333 50.8808C44.0782 51.9257 41.4649 52.4481 37.8933 52.4481Z" fill="#18181B"/>
<path d="M23.3333 57.9336H28.7218V59.3143H25.2747V66.0064H23.3333V57.9336Z" fill="#18181B"/>
<path d="M33.4935 66.1308C33.0454 66.1308 32.6306 66.1017 32.249 66.0437C31.8757 65.9856 31.4857 65.8861 31.0792 65.7452C30.6395 65.5959 30.2952 65.3554 30.0463 65.0237C29.7975 64.6837 29.673 64.2732 29.673 63.7923V60.2597C29.673 59.8616 29.7601 59.505 29.9343 59.1899C30.1169 58.8748 30.3492 58.626 30.6312 58.4436C30.8801 58.286 31.1871 58.1534 31.5521 58.0456C31.9172 57.9378 32.2573 57.8714 32.5726 57.8465C32.8629 57.8217 33.1699 57.8092 33.4935 57.8092C33.8751 57.8092 34.2069 57.8258 34.489 57.859C34.7711 57.8839 35.0863 57.9419 35.4348 58.0331C35.833 58.1492 36.1607 58.2902 36.4179 58.456C36.6751 58.6219 36.8908 58.8541 37.065 59.1526C37.2475 59.4594 37.3388 59.8284 37.3388 60.2597V63.7923C37.3388 64.2401 37.2185 64.6257 36.9779 64.9491C36.7456 65.2725 36.422 65.5171 36.0072 65.683C35.2606 65.9815 34.4226 66.1308 33.4935 66.1308ZM33.5183 64.7501C33.7921 64.7501 34.0203 64.7418 34.2028 64.7252C34.3936 64.7003 34.5886 64.6588 34.7877 64.6008C34.9868 64.5427 35.1361 64.4474 35.2357 64.3147C35.3435 64.1737 35.3975 63.9996 35.3975 63.7923V60.2472C35.3975 59.8658 35.244 59.5963 34.937 59.4387C34.63 59.2729 34.153 59.1899 33.5059 59.1899C32.8588 59.1899 32.3817 59.2687 32.0748 59.4263C31.7678 59.5838 31.6143 59.8575 31.6143 60.2472V63.7923C31.6143 63.9996 31.6683 64.1737 31.7761 64.3147C31.884 64.4474 32.0416 64.5427 32.249 64.6008C32.4481 64.6588 32.6389 64.7003 32.8214 64.7252C33.0123 64.7418 33.2446 64.7501 33.5183 64.7501Z" fill="#18181B"/>
<path d="M38.2166 64.6257H38.3908C38.731 64.6257 39.0047 64.4971 39.2122 64.2401C39.4279 63.9747 39.5938 63.4937 39.7099 62.7972C39.8261 62.1006 39.8842 61.1138 39.8842 59.8367V57.9336H45.7579V64.6257H46.9402V67.8846H45.1979V66.0064H39.9588V67.8846H38.2166V64.6257ZM43.8166 64.6381V59.3019H41.6264V60.297C41.6264 62.395 41.3568 63.842 40.8175 64.6381H43.8166Z" fill="#18181B"/>
<path d="M50.229 57.9336H52.5934L55.5054 66.0064H53.5392L52.8174 63.8793H49.8681L49.1588 66.0064H47.2423L50.229 57.9336ZM52.3943 62.5857L51.3739 59.5506H51.3241L50.3036 62.5857H52.3943Z" fill="#18181B"/>
<path d="M7.00002 71.9272H12.3885V73.3079H8.94135V80H7.00002V71.9272Z" fill="#18181B"/>
<path d="M15.6543 71.9272H18.0188L20.9308 80H18.9646L18.2428 77.873H15.2935L14.5841 80H12.6677L15.6543 71.9272ZM17.8197 76.5793L16.7992 73.5443H16.7495L15.729 76.5793H17.8197Z" fill="#18181B"/>
<path d="M21.8264 71.9272H25.062C25.8501 71.9272 26.4723 71.9811 26.9286 72.0889C27.3932 72.1967 27.7292 72.3875 27.9366 72.6611C28.1523 72.9265 28.2602 73.2996 28.2602 73.7806V75.3106C28.2602 75.8413 28.144 76.2559 27.9117 76.5545C27.6877 76.853 27.3268 77.0644 26.8291 77.1888C26.3396 77.3132 25.6759 77.3754 24.838 77.3754H23.7677V80H21.8264V71.9272ZM24.9997 76.0445C25.5058 76.0445 25.8625 75.9864 26.07 75.8703C26.2774 75.7459 26.3811 75.5386 26.3811 75.2484V73.9548C26.3811 73.6894 26.2815 73.5153 26.0824 73.4323C25.8916 73.3494 25.5224 73.3079 24.9748 73.3079H23.7677V76.0445H24.9997Z" fill="#18181B"/>
<path d="M31.7689 71.9272H34.1334L37.0454 80H35.0791L34.3574 77.873H31.408L30.6987 80H28.7823L31.7689 71.9272ZM33.9343 76.5793L32.9138 73.5443H32.864L31.8436 76.5793H33.9343Z" fill="#18181B"/>
<path d="M37.941 71.9272H39.8823V75.1613H43.317V71.9272H45.2583V80H43.317V76.542H39.8823V80H37.941V71.9272Z" fill="#18181B"/>
<path d="M48.8615 73.3079H46.3726V71.9272H53.2792V73.3079H50.8028V80H48.8615V73.3079Z" fill="#18181B"/>
<path d="M54.3958 71.9272H56.3372V77.4501L59.8216 71.9272H61.7629V80H59.8216V74.3901L56.3372 80H54.3958V71.9272Z" fill="#18181B"/>
<path d="M63.5104 71.9272H65.4517V77.4501L68.9362 71.9272H70.8775V80H68.9362V74.3901L65.4517 80H63.5104V71.9272Z" fill="#18181B"/>
<path d="M65.7236 65.6937C71.1079 60.3118 74.7747 53.4549 76.2602 45.99C77.7457 38.5252 76.9833 30.7876 74.0693 23.7559C71.1554 16.7241 66.2207 10.714 59.8894 6.48547C53.5582 2.25696 46.1146 3.47794e-07 38.5 0C30.8854 -3.47794e-07 23.4418 2.25696 17.1106 6.48546C10.7793 10.714 5.84463 16.7241 2.93065 23.7559C0.0166819 30.7876 -0.745747 38.5252 0.739783 45.99C2.22531 53.4549 5.89208 60.3118 11.2764 65.6937L16.7211 60.2514C12.4137 55.9459 9.48025 50.4604 8.29182 44.4885C7.1034 38.5166 7.71334 32.3266 10.0445 26.7012C12.3757 21.0758 16.3234 16.2677 21.3884 12.8849C26.4535 9.50206 32.4083 7.69649 38.5 7.69649C44.5917 7.69649 50.5465 9.50206 55.6115 12.8849C60.6766 16.2677 64.6243 21.0758 66.9555 26.7012C69.2867 32.3266 69.8966 38.5166 68.7082 44.4885C67.5197 50.4604 64.5863 55.9459 60.2789 60.2514L65.7236 65.6937Z" fill="#EF4444"/>
</svg>
